# xmcd
#
# Track frame offsets:
#	150
#	23142
#	41507
#	58560
#	77797
#	99720
#	116150
#	138002
#	157870
#	172455
#	190220
#	210930
#
# Disc length: 3159 seconds
#
# Revision: 0
# Processed by: cddbd v1.5PL3 Copyright (c) Steve Scherf et al.
# Submitted via: dBpowerAMP V4.0
#
DISCID=9c0c550c
DTITLE=Paul Bergen - Puddle Of Tears
DYEAR=1998
DGENRE=Rock and Roll
TTITLE0=Puddle Of Tears
TTITLE1=Too Much
TTITLE2=Still Haunts Me
TTITLE3=Alone With The Blues
TTITLE4=Don't Trust Me
TTITLE5=Not The One
TTITLE6=Don't Miss You
TTITLE7=Sleep Tonight
TTITLE8=So Wrong
TTITLE9=Make It Alright
TTITLE10=Crackin Up
TTITLE11=Puddle Of Tears(Demo)
EXTD=
EXTT0=
EXTT1=
EXTT2=
EXTT3=
EXTT4=
EXTT5=
EXTT6=
EXTT7=
EXTT8=
EXTT9=
EXTT10=
EXTT11=
PLAYORDER=
